HIERARCHY
ROOT Hips
{
    OFFSET 0.000000 0.000000 0.000000
    CHANNELS 6 Xposition Yposition Zposition Zrotation Xrotation Yrotation
    JOINT Spine
    {
        OFFSET -0.000000 14.517291 0.000000
        CHANNELS 3 Zrotation Xrotation Yrotation
        JOINT Spine1
        {
            OFFSET -0.000000 37.558300 0.000000
            CHANNELS 3 Zrotation Xrotation Yrotation
            JOINT Neck
            {
                OFFSET -0.000000 37.404057 3.400369
                CHANNELS 3 Zrotation Xrotation Yrotation
                JOINT Head
                {
                    OFFSET -0.000000 24.785618 -3.540803
                    CHANNELS 3 Zrotation Xrotation Yrotation
                    End Site
                    {
                        OFFSET -0.000000 35.408028 0.000000
                    }
                }
            }
            JOINT LeftShoulder
            {
                OFFSET 6.992933 33.973492 -0.192664
                CHANNELS 3 Zrotation Xrotation Yrotation
                JOINT LeftArm
                {
                    OFFSET 21.527611 0.000000 0.000000
                    CHANNELS 3 Zrotation Xrotation Yrotation
                    JOINT LeftForeArm
                    {
                        OFFSET 56.353916 0.000000 0.000000
                        CHANNELS 3 Zrotation Xrotation Yrotation
                        JOINT LeftHand
                        {
                            OFFSET 47.774071 0.000000 0.000000
                            CHANNELS 3 Zrotation Xrotation Yrotation
                            End Site
                            {
                                OFFSET 26.556021 0.000000 0.000000
                            }
                        }
                    }
                }
            }
            JOINT RightShoulder
            {
                OFFSET -7.065357 33.973492 -0.192664
                CHANNELS 3 Zrotation Xrotation Yrotation
                JOINT RightArm
                {
                    OFFSET -21.527611 0.000000 0.000000
                    CHANNELS 3 Zrotation Xrotation Yrotation
                    JOINT RightForeArm
                    {
                        OFFSET -56.353916 0.000000 0.000000
                        CHANNELS 3 Zrotation Xrotation Yrotation
                        JOINT RightHand
                        {
                            OFFSET -47.774071 0.000000 0.000000
                            CHANNELS 3 Zrotation Xrotation Yrotation
                            End Site
                            {
                                OFFSET -26.556021 0.000000 0.000000
                            }
                        }
                    }
                }
            }
        }
    }
    JOINT LeftUpLeg
    {
        OFFSET 17.704014 0.000000 0.000000
        CHANNELS 3 Zrotation Xrotation Yrotation
        JOINT LeftLeg
        {
            OFFSET -0.000000 -81.181816 0.000000
            CHANNELS 3 Zrotation Xrotation Yrotation
            JOINT LeftFoot
            {
                OFFSET -0.000000 -62.821102 0.000000
                CHANNELS 3 Zrotation Xrotation Yrotation
                JOINT LeftToeBase
                {
                    OFFSET -0.000000 -11.507608 26.556021
                    CHANNELS 3 Zrotation Xrotation Yrotation
                    End Site
                    {
                        OFFSET -0.000000 0.000000 7.081605
                    }
                }
            }
        }
    }
    JOINT RightUpLeg
    {
        OFFSET -17.704014 0.000000 0.000000
        CHANNELS 3 Zrotation Xrotation Yrotation
        JOINT RightLeg
        {
            OFFSET -0.000000 -81.181816 0.000000
            CHANNELS 3 Zrotation Xrotation Yrotation
            JOINT RightFoot
            {
                OFFSET -0.000000 -62.821102 0.000000
                CHANNELS 3 Zrotation Xrotation Yrotation
                JOINT RightToeBase
                {
                    OFFSET -0.000000 -11.507608 26.556021
                    CHANNELS 3 Zrotation Xrotation Yrotation
                    End Site
                    {
                        OFFSET -0.000000 0.000000 7.081605
                    }
                }
            }
        }
    }
}
MOTION
Frames:    10
Frame Time:    0.008333
17.411699    155.904678    -91.112854    -4.673748    2.801868    12.205461    0.807462    -1.761859    1.125816    -8.005660    -1.035185    0.298197    7.874950    10.193796    -7.075757    13.259775    -8.668246    -4.942597    13.534592    -5.462674    -12.017687    -22.103233    -30.689957    -30.755116    -15.723278    -41.228088    -87.639351    -39.067162    -40.603298    -42.953991    -18.327612    0.352397    -7.961950    18.113489    17.466089    13.954429    0.000000    0.000000    0.000000    0.000000    0.000000    0.000000    6.772231    -7.196807    -20.249697    -7.185063    36.749851    -30.374826    17.752548    -25.348101    40.690826    0.000000    0.000000    0.000000    -4.054968    -32.740292    8.075928    9.141255    15.658527    -7.066081    0.597476    17.774471    -12.386785    0.000000    0.000000    0.000000    
17.361958    155.914627    -91.046646    -4.659202    2.765149    12.318694    0.796551    -1.737716    1.069838    -8.029601    -1.053567    0.278146    7.845656    10.204002    -7.101469    13.304418    -8.671393    -4.956961    13.526834    -5.472087    -12.026825    -22.079741    -30.649454    -30.735540    -15.729468    -41.254330    -87.666298    -39.081738    -40.632088    -42.963535    -18.348654    0.367487    -7.974004    19.003630    17.701279    14.123113    17.965525    -22.094751    8.534686    -31.087362    -41.301758    67.174622    6.813504    -7.139641    -20.224285    -7.178220    36.685532    -30.426842    17.729244    -25.349379    40.654041    0.000000    0.000000    0.000000    -4.088898    -32.720161    8.002862    9.159850    15.762959    -7.137629    0.542533    17.722078    -12.355945    0.000000    0.000000    0.000000    
17.306719    155.926849    -90.981232    -4.640988    2.734807    12.434427    0.771674    -1.714865    1.017160    -8.039116    -1.069489    0.259592    7.803269    10.183203    -7.124030    13.352485    -8.644780    -4.972163    13.503316    -5.466660    -12.028170    -22.072598    -30.671793    -30.745396    -15.762483    -41.218918    -87.689423    -39.051186    -40.639961    -42.952610    -18.372305    0.377984    -8.002507    19.038519    17.749277    14.094112    17.983330    -22.081642    8.543159    -31.096979    -41.306633    67.200584    6.853343    -7.088779    -20.196165    -7.173453    36.621067    -30.451355    17.706661    -25.339365    40.601807    0.000000    0.000000    0.000000    -4.123546    -32.708652    7.911725    9.162038    15.883075    -7.130929    0.502512    17.653936    -12.358418    0.000000    0.000000    0.000000    
17.251671    155.941269    -90.904976    -4.622078    2.693103    12.557902    0.759909    -1.686409    0.970077    -8.067422    -1.082983    0.242808    7.768257    10.183530    -7.149174    13.398916    -8.647289    -4.986011    13.482462    -5.496496    -12.068453    -22.030180    -30.620356    -30.700733    -15.756577    -41.255016    -87.704773    -39.073914    -40.661366    -42.971523    -18.394848    0.396431    -8.040814    19.075750    17.813000    14.067594    18.009033    -22.080168    8.550032    -31.119816    -41.325157    67.215714    6.889351    -7.031490    -20.147877    -7.123811    36.584171    -30.732040    17.740377    -25.301664    40.754055    0.000000    0.000000    0.000000    -4.157857    -32.671566    7.845658    9.170153    15.978676    -7.146245    0.468490    17.583530    -12.383060    0.000000    0.000000    0.000000    
17.193663    155.959274    -90.832863    -4.598913    2.670864    12.686811    0.733289    -1.678589    0.918602    -8.086173    -1.090756    0.225066    7.715657    10.176731    -7.182352    13.460161    -8.629031    -5.006894    13.457941    -5.484701    -12.087021    -22.027866    -30.669722    -30.720247    -15.787416    -41.220383    -87.701195    -39.072056    -40.645355    -42.985149    -18.422564    0.395573    -8.066150    18.262056    17.635342    13.823580    18.009033    -22.080168    8.550032    -31.119816    -41.325157    67.215714    6.927936    -6.983619    -20.107584    -7.094136    36.503445    -30.815620    17.686262    -25.298304    40.713593    0.000000    0.000000    0.000000    -4.207218    -32.654816    7.825862    9.208358    16.071749    -7.187565    0.406667    17.513935    -12.438767    0.000000    0.000000    0.000000    
17.142210    155.983551    -90.761635    -4.578805    2.654392    12.820845    0.720187    -1.671201    0.871988    -8.106265    -1.111284    0.207953    7.643833    10.189855    -7.214436    13.532024    -8.634499    -5.019098    13.417515    -5.481108    -12.131640    -22.007326    -30.690428    -30.713533    -15.785753    -41.227467    -87.677216    -39.122635    -40.613777    -43.032803    -18.468092    0.420145    -8.101707    19.179375    17.861917    13.986273    18.060040    -22.136312    8.534460    -31.100237    -41.379669    67.276108    6.962805    -6.946513    -20.057217    -7.055814    36.429363    -30.858908    17.591742    -25.329210    40.631725    0.000000    0.000000    0.000000    -4.281785    -32.640728    7.886691    9.306958    16.136700    -7.267226    0.379274    17.459854    -12.565720    0.000000    0.000000    0.000000    
17.078032    156.009262    -90.686455    -4.566400    2.657476    12.976844    0.716610    -1.690273    0.818631    -8.163094    -1.124476    0.188492    7.623147    10.194943    -7.248889    13.570641    -8.634803    -5.045110    13.406948    -5.468536    -12.183304    -21.996727    -30.746416    -30.719511    -15.788512    -41.208035    -87.639198    -39.147076    -40.572144    -43.057480    -18.467735    0.433211    -8.143529    19.225559    17.883850    13.935221    18.085337    -22.144831    8.525423    -31.071041    -41.376247    67.294060    7.005581    -6.938074    -20.008410    -7.003662    36.360577    -30.984793    17.511322    -25.336508    40.603554    0.000000    0.000000    0.000000    -4.338376    -32.632839    7.833595    9.331867    16.210835    -7.253146    0.346417    17.391293    -12.668537    0.000000    0.000000    0.000000    
17.017601    156.039047    -90.611809    -4.549577    2.643295    13.129038    0.717180    -1.677906    0.767360    -8.224329    -1.147268    0.169297    7.610370    10.163711    -7.277596    13.589179    -8.594529    -5.077168    13.400690    -5.449227    -12.228885    -22.002831    -30.840446    -30.741266    -15.810171    -41.159523    -87.605164    -39.118229    -40.544575    -43.051186    -18.462254    0.455763    -8.206325    19.263468    17.948093    13.904298    18.090223    -22.172247    8.537873    -31.045033    -41.385796    67.294159    7.043209    -6.909854    -19.976547    -6.971537    36.281902    -31.066967    17.424654    -25.327045    40.578419    0.000000    0.000000    0.000000    -4.388818    -32.606750    7.757349    9.341035    16.287533    -7.214423    0.331458    17.323824    -12.771174    0.000000    0.000000    0.000000    
16.955849    156.072540    -90.545029    -4.544645    2.637893    13.294919    0.721057    -1.649370    0.702244    -8.251288    -1.208307    0.142803    7.543108    10.154235    -7.319922    13.630495    -8.560960    -5.113102    13.352990    -5.431326    -12.270874    -21.976448    -30.876335    -30.736414    -15.833946    -41.158188    -87.611786    -39.067528    -40.593731    -43.007687    -18.506573    0.473006    -8.246476    18.465002    17.760689    13.653726    18.090223    -22.172247    8.537873    -31.045033    -41.385796    67.294159    7.093212    -6.900974    -19.974394    -6.968434    36.205540    -31.141150    17.381073    -25.299301    40.589085    0.000000    0.000000    0.000000    -4.435100    -32.588463    7.662869    9.341039    16.354221    -7.220330    0.286337    17.281506    -12.819120    0.000000    0.000000    0.000000    
16.886864    156.111572    -90.474762    -4.549099    2.637572    13.476297    0.723659    -1.625944    0.626720    -8.275990    -1.277126    0.112424    7.533804    10.173057    -7.349705    13.605782    -8.579487    -5.145602    13.316160    -5.415568    -12.323016    -21.947992    -30.929136    -30.717194    -15.815215    -41.135715    -87.554985    -39.096626    -40.525608    -43.037689    -18.534529    0.483953    -8.267692    19.380409    18.009735    13.762855    18.163513    -22.159565    8.580018    -31.045145    -41.415009    67.390823    7.153627    -6.899848    -19.989557    -6.959299    36.124035    -31.234995    17.309721    -25.283213    40.606110    0.000000    0.000000    0.000000    -4.475638    -32.570492    7.564622    9.333325    16.415224    -7.195352    0.252042    17.250946    -12.899262    0.000000    0.000000    0.000000    
